<svg xmlns="http://www.w3.org/2000/svg" width="1240" height="680" viewBox="0 0 1240 680">
<defs>
<linearGradient id="bg-grad" gradientUnits="userSpaceOnUse" x1="0" y1="0" x2="1240" y2="680"><stop offset="0%" stop-color="#0f0f1a"/><stop offset="100%" stop-color="#1a1a2e"/></linearGradient>
<marker id="arr_data" viewBox="0 0 10 10" refX="8.5" refY="5" markerWidth="7" markerHeight="7" orient="auto"><path d="M0,0 L10,5 L0,10 z" fill="#a855f7"/></marker>
<marker id="arr_control" viewBox="0 0 10 10" refX="8.5" refY="5" markerWidth="7" markerHeight="7" orient="auto"><path d="M0,0 L10,5 L0,10 z" fill="#3b82f6"/></marker>
<marker id="arr_guide" viewBox="0 0 10 10" refX="8.5" refY="5" markerWidth="7" markerHeight="7" orient="auto"><path d="M0,0 L10,5 L0,10 z" fill="#f97316"/></marker>
<marker id="arr_write" viewBox="0 0 10 10" refX="8.5" refY="5" markerWidth="7" markerHeight="7" orient="auto"><path d="M0,0 L10,5 L0,10 z" fill="#10b981"/></marker>
<marker id="arr_loop" viewBox="0 0 10 10" refX="8.5" refY="5" markerWidth="7" markerHeight="7" orient="auto"><path d="M0,0 L10,5 L0,10 z" fill="#eab308"/></marker>
<marker id="arr_dim" viewBox="0 0 10 10" refX="8.5" refY="5" markerWidth="7" markerHeight="7" orient="auto"><path d="M0,0 L10,5 L0,10 z" fill="#475569"/></marker>
</defs>
<rect width="1240" height="680" fill="url(#bg-grad)"/>
<text x="28" y="40" font-family="'JetBrains Mono','SFMono-Regular',Consolas,'Liberation Mono',Menlo,monospace" font-size="16" font-weight="700" fill="#e2e8f0">Scene Exact Audio Lock — Context Loop wiring</text>
<text x="28" y="58" font-family="'JetBrains Mono','SFMono-Regular',Consolas,'Liberation Mono',Menlo,monospace" font-size="11" fill="#94a3b8">Full scene lock: only current_scene events mixed; exact_audio is the deterministic scene master (workflows context_loop/01, 03, 05)</text>
<polyline points="140.0,145.0 140.0,220.0" fill="none" stroke="#a855f7" stroke-width="1.6" marker-end="url(#arr_data)" stroke-linejoin="round"/>
<polyline points="240.0,256.0 305,256 305,239 360.0,239.0" fill="none" stroke="#a855f7" stroke-width="2.6" marker-end="url(#arr_data)" stroke-linejoin="round"/>
<polyline points="240.0,371.0 297,371 297,247 360.0,247.0" fill="none" stroke="#3b82f6" stroke-width="1.6" marker-end="url(#arr_control)" stroke-linejoin="round"/>
<polyline points="240.0,491.0 321,491 321,255 360.0,255.0" fill="none" stroke="#a855f7" stroke-width="1.6" marker-end="url(#arr_data)" stroke-linejoin="round"/>
<polyline points="240.0,602.5 329,602.5 329,263 360.0,263.0" fill="none" stroke="#a855f7" stroke-width="1.6" marker-end="url(#arr_data)" stroke-linejoin="round"/>
<polyline points="593.0,251.0 646,251 646,122.5 700.0,122.5" fill="none" stroke="#a855f7" stroke-width="2.6" marker-end="url(#arr_data)" stroke-linejoin="round"/>
<polyline points="476.5,282.0 476.5,451 700.0,451.0" fill="none" stroke="#a855f7" stroke-width="2.6" marker-end="url(#arr_data)" stroke-linejoin="round"/>
<polyline points="125.0,522.0 125,545 340,545 340,395 730,395 730.0,420.0" fill="none" stroke="#a855f7" stroke-width="1.6" marker-end="url(#arr_data)" stroke-linejoin="round"/>
<polyline points="125.0,402.0 125,408 760,408 760.0,420.0" fill="none" stroke="#a855f7" stroke-width="1.6" marker-end="url(#arr_data)" stroke-linejoin="round"/>
<polyline points="786.0,145.0 786.0,260.0" fill="none" stroke="#a855f7" stroke-width="1.6" marker-end="url(#arr_data)" stroke-linejoin="round"/>
<polyline points="786.0,305.0 786,362 795,362 795.0,420.0" fill="none" stroke="#a855f7" stroke-width="1.6" marker-end="url(#arr_data)" stroke-linejoin="round"/>
<polyline points="890.0,451.0 945,451 945,447.5 1000.0,447.5" fill="none" stroke="#eab308" stroke-width="1.6" marker-end="url(#arr_loop)" stroke-linejoin="round"/>
<g>
<path d="M 40 100 h 186 l 14 14 v 31 h -200 z" fill="rgb(43,43,38)" stroke="#eab308" stroke-width="1.5"/>
<path d="M 226 100 v 14 h 14" fill="none" stroke="#eab308" stroke-width="1.2" opacity="0.8"/>
<text x="140.0" y="126.5" text-anchor="middle" font-family="'JetBrains Mono','SFMono-Regular',Consolas,'Liberation Mono',Menlo,monospace" font-size="13" font-weight="600" fill="#e2e8f0">Approved AUDIO take</text>
</g>
<g>
<rect x="40" y="220" width="200" height="72" rx="10" fill="rgb(15,44,53)" stroke="#10b981" stroke-width="1.5"/>
<text x="140.0" y="240.0" text-anchor="middle" font-family="'JetBrains Mono','SFMono-Regular',Consolas,'Liberation Mono',Menlo,monospace" font-size="13" font-weight="600" fill="#e2e8f0">MiniMax H3 Scene</text>
<text x="140.0" y="254.0" text-anchor="middle" font-family="'JetBrains Mono','SFMono-Regular',Consolas,'Liberation Mono',Menlo,monospace" font-size="13" font-weight="600" fill="#e2e8f0">Timed Audio</text>
<text x="140.0" y="267.0" text-anchor="middle" font-family="'JetBrains Mono','SFMono-Regular',Consolas,'Liberation Mono',Menlo,monospace" font-size="11" fill="#94a3b8">scene_index + local</text>
<text x="140.0" y="280.0" text-anchor="middle" font-family="'JetBrains Mono','SFMono-Regular',Consolas,'Liberation Mono',Menlo,monospace" font-size="11" fill="#94a3b8">start_frame</text>
</g>
<g>
<rect x="40" y="340" width="200" height="62" rx="10" fill="rgb(45,35,39)" stroke="#f97316" stroke-width="1.5"/>
<text x="140.0" y="361.5" text-anchor="middle" font-family="'JetBrains Mono','SFMono-Regular',Consolas,'Liberation Mono',Menlo,monospace" font-size="13" font-weight="600" fill="#e2e8f0">MiniMax H3 Chain</text>
<text x="140.0" y="375.5" text-anchor="middle" font-family="'JetBrains Mono','SFMono-Regular',Consolas,'Liberation Mono',Menlo,monospace" font-size="13" font-weight="600" fill="#e2e8f0">Current</text>
<text x="140.0" y="388.5" text-anchor="middle" font-family="'JetBrains Mono','SFMono-Regular',Consolas,'Liberation Mono',Menlo,monospace" font-size="11" fill="#94a3b8">clip_index (one-based)</text>
</g>
<g>
<rect x="40" y="460" width="200" height="62" rx="10" fill="rgb(45,35,39)" stroke="#f97316" stroke-width="1.5"/>
<text x="140.0" y="481.5" text-anchor="middle" font-family="'JetBrains Mono','SFMono-Regular',Consolas,'Liberation Mono',Menlo,monospace" font-size="13" font-weight="600" fill="#e2e8f0">MiniMax H3 Chain</text>
<text x="140.0" y="495.5" text-anchor="middle" font-family="'JetBrains Mono','SFMono-Regular',Consolas,'Liberation Mono',Menlo,monospace" font-size="13" font-weight="600" fill="#e2e8f0">Context</text>
<text x="140.0" y="508.5" text-anchor="middle" font-family="'JetBrains Mono','SFMono-Regular',Consolas,'Liberation Mono',Menlo,monospace" font-size="11" fill="#94a3b8">continuation latent</text>
</g>
<g>
<rect x="40" y="580" width="200" height="45" rx="10" fill="rgb(35,31,69)" stroke="#a855f7" stroke-width="1.5"/>
<text x="140.0" y="606.5" text-anchor="middle" font-family="'JetBrains Mono','SFMono-Regular',Consolas,'Liberation Mono',Menlo,monospace" font-size="13" font-weight="600" fill="#e2e8f0">MiniMax H3 audio VAE</text>
</g>
<g>
<rect x="360" y="220" width="233" height="62" rx="10" fill="rgb(15,44,53)" stroke="#10b981" stroke-width="1.5"/>
<text x="476.5" y="241.5" text-anchor="middle" font-family="'JetBrains Mono','SFMono-Regular',Consolas,'Liberation Mono',Menlo,monospace" font-size="13" font-weight="600" fill="#e2e8f0">MiniMax H3 Scene Exact</text>
<text x="476.5" y="255.5" text-anchor="middle" font-family="'JetBrains Mono','SFMono-Regular',Consolas,'Liberation Mono',Menlo,monospace" font-size="13" font-weight="600" fill="#e2e8f0">Audio Lock</text>
<text x="476.5" y="268.5" text-anchor="middle" font-family="'JetBrains Mono','SFMono-Regular',Consolas,'Liberation Mono',Menlo,monospace" font-size="11" fill="#94a3b8">scene_timed_audios · event set</text>
</g>
<g>
<polygon points="726,100 846,100 872,122.5 846,145 726,145 700,122.5" fill="rgb(21,37,69)" stroke="#3b82f6" stroke-width="1.5"/>
<text x="786.0" y="126.5" text-anchor="middle" font-family="'JetBrains Mono','SFMono-Regular',Consolas,'Liberation Mono',Menlo,monospace" font-size="13" font-weight="600" fill="#e2e8f0">H3 sampler</text>
</g>
<g>
<rect x="700" y="260" width="172" height="45" rx="10" fill="rgb(21,37,69)" stroke="#3b82f6" stroke-width="1.5"/>
<text x="786.0" y="280.0" text-anchor="middle" font-family="'JetBrains Mono','SFMono-Regular',Consolas,'Liberation Mono',Menlo,monospace" font-size="13" font-weight="600" fill="#e2e8f0">VAE Decode</text>
<text x="786.0" y="293.0" text-anchor="middle" font-family="'JetBrains Mono','SFMono-Regular',Consolas,'Liberation Mono',Menlo,monospace" font-size="11" fill="#94a3b8">video</text>
</g>
<g>
<polygon points="726,420 864,420 890,451.0 864,482 726,482 700,451.0" fill="rgb(21,37,69)" stroke="#3b82f6" stroke-width="1.5"/>
<text x="795.0" y="448.5" text-anchor="middle" font-family="'JetBrains Mono','SFMono-Regular',Consolas,'Liberation Mono',Menlo,monospace" font-size="13" font-weight="600" fill="#e2e8f0">MiniMax H3 Loop Trim</text>
<text x="795.0" y="461.5" text-anchor="middle" font-family="'JetBrains Mono','SFMono-Regular',Consolas,'Liberation Mono',Menlo,monospace" font-size="11" fill="#94a3b8">images + audio + state</text>
</g>
<g>
<rect x="1000" y="420" width="200" height="45" rx="10" fill="rgb(45,35,39)" stroke="#f97316" stroke-width="1.5"/>
<text x="1100.0" y="440.0" text-anchor="middle" font-family="'JetBrains Mono','SFMono-Regular',Consolas,'Liberation Mono',Menlo,monospace" font-size="13" font-weight="600" fill="#e2e8f0">Segment Save → Review</text>
<text x="1100.0" y="453.0" text-anchor="middle" font-family="'JetBrains Mono','SFMono-Regular',Consolas,'Liberation Mono',Menlo,monospace" font-size="11" fill="#94a3b8">→ next scene</text>
</g>
<line x1="28" y1="652" x2="54" y2="652" stroke="#a855f7" stroke-width="1.6" marker-end="url(#arr_data)"/>
<text x="62" y="656" font-family="'JetBrains Mono','SFMono-Regular',Consolas,'Liberation Mono',Menlo,monospace" font-size="11" fill="#94a3b8">audio / latent</text>
<line x1="183.2" y1="652" x2="209.2" y2="652" stroke="#3b82f6" stroke-width="1.6" marker-end="url(#arr_control)"/>
<text x="217.2" y="656" font-family="'JetBrains Mono','SFMono-Regular',Consolas,'Liberation Mono',Menlo,monospace" font-size="11" fill="#94a3b8">scene index</text>
<line x1="318.0" y1="652" x2="344.0" y2="652" stroke="#eab308" stroke-width="1.6" marker-end="url(#arr_loop)"/>
<text x="352.0" y="656" font-family="'JetBrains Mono','SFMono-Regular',Consolas,'Liberation Mono',Menlo,monospace" font-size="11" fill="#94a3b8">recursive loop</text>
<text x="1212" y="656" text-anchor="end" font-family="'JetBrains Mono','SFMono-Regular',Consolas,'Liberation Mono',Menlo,monospace" font-size="11" fill="#94a3b8">Loop Trim takes Chain Context.trim_frames + Chain Current.state</text>
<text x="1212" y="641" text-anchor="end" font-family="'JetBrains Mono','SFMono-Regular',Consolas,'Liberation Mono',Menlo,monospace" font-size="11" fill="#94a3b8">only scene_index == current_scene events are mixed · do not substitute sampler-decoded audio for exact_audio</text>
</svg>